<?xml version="1.0" encoding="iso-8859-1"?>
<!-- Uploaded to: SVG Repo, www.svgrepo.com, Generator: SVG Repo Mixer Tools -->
<svg height="800px" width="800px" version="1.1" id="Layer_1" xmlns="http://www.w3.org/2000/svg" xmlns:xlink="http://www.w3.org/1999/xlink" 
	 viewBox="0 0 512 512" xml:space="preserve">
<g transform="translate(1 1)">
	<g>
		<path style="fill:#E2E3E5;" d="M169.667,178.2H84.333C37.4,178.2-1,139.8-1,92.867S37.4,7.533,84.333,7.533
			s85.333,38.4,85.333,85.333V178.2z M84.333,24.6c-37.547,0-68.267,30.72-68.267,68.267s30.72,68.267,68.267,68.267H152.6V92.867
			C152.6,55.32,121.88,24.6,84.333,24.6z"/>
		<path style="fill:#E2E3E5;" d="M357.4,365.933H152.6v-204.8h204.8V365.933z M169.667,348.867h170.667V178.2H169.667V348.867z"/>
		<path style="fill:#E2E3E5;" d="M169.667,434.2H152.6v-68.267H84.333c-37.547,0-68.267,30.72-68.267,68.267H-1
			c0-46.933,38.4-85.333,85.333-85.333h85.333V434.2z"/>
		<path style="fill:#E2E3E5;" d="M425.667,178.2h-85.333V92.867c0-46.933,38.4-85.333,85.333-85.333S511,45.933,511,92.867
			S472.6,178.2,425.667,178.2z M357.4,161.133h68.267c37.547,0,68.267-30.72,68.267-68.267S463.213,24.6,425.667,24.6
			S357.4,55.32,357.4,92.867V161.133z"/>
		<path style="fill:#E2E3E5;" d="M511,434.2h-17.067c0-37.547-30.72-68.267-68.267-68.267H357.4V434.2h-17.067v-85.333h85.333
			C472.6,348.867,511,387.267,511,434.2z"/>
	</g>
	<g>
		<path style="fill:#B6B6B6;" d="M161.133,169.667h-76.8C37.4,169.667-1,131.267-1,84.333S37.4-1,84.333-1
			s85.333,38.4,85.333,85.333v76.8C169.667,166.253,166.253,169.667,161.133,169.667z M84.333,16.067
			c-37.547,0-68.267,30.72-68.267,68.267S46.787,152.6,84.333,152.6H152.6V84.333C152.6,46.787,121.88,16.067,84.333,16.067z"/>
		<path style="fill:#B6B6B6;" d="M348.867,357.4H161.133c-5.12,0-8.533-3.413-8.533-8.533V161.133c0-5.12,3.413-8.533,8.533-8.533
			h187.733c5.12,0,8.533,3.413,8.533,8.533v187.733C357.4,353.987,353.987,357.4,348.867,357.4z M169.667,340.333h170.667V169.667
			H169.667V340.333z"/>
		<path style="fill:#B6B6B6;" d="M84.333,511C37.4,511-1,472.6-1,425.667s38.4-85.333,85.333-85.333h76.8
			c5.12,0,8.533,3.413,8.533,8.533v76.8C169.667,472.6,131.267,511,84.333,511z M84.333,357.4c-37.547,0-68.267,30.72-68.267,68.267
			s30.72,68.267,68.267,68.267s68.267-30.72,68.267-68.267V357.4H84.333z"/>
		<path style="fill:#B6B6B6;" d="M425.667,169.667h-76.8c-5.12,0-8.533-3.413-8.533-8.533v-76.8C340.333,37.4,378.733-1,425.667-1
			S511,37.4,511,84.333S472.6,169.667,425.667,169.667z M357.4,152.6h68.267c37.547,0,68.267-30.72,68.267-68.267
			s-30.72-68.267-68.267-68.267S357.4,46.787,357.4,84.333V152.6z"/>
		<path style="fill:#B6B6B6;" d="M425.667,511c-46.933,0-85.333-38.4-85.333-85.333v-76.8c0-5.12,3.413-8.533,8.533-8.533h76.8
			c46.933,0,85.333,38.4,85.333,85.333S472.6,511,425.667,511z M357.4,357.4v68.267c0,37.547,30.72,68.267,68.267,68.267
			s68.267-30.72,68.267-68.267s-30.72-68.267-68.267-68.267H357.4z"/>
	</g>
</g>
</svg>